<svg xmlns="http://www.w3.org/2000/svg" xmlns:xlink="http://www.w3.org/1999/xlink" viewBox="0 0 818.32 1006.6"><defs><style>.cls-1{fill:url(#radial-gradient);}.cls-2{fill:#8dc63f;}.cls-3{fill:#231f20;}</style><radialGradient id="radial-gradient" cx="409.48" cy="408.84" r="408.84" gradientUnits="userSpaceOnUse"><stop offset="0" stop-color="#6ca442"/><stop offset="0.18" stop-color="#407e3d"/><stop offset="0.35" stop-color="#1d5f39"/><stop offset="0.49" stop-color="#084d37"/><stop offset="0.58" stop-color="#004636"/></radialGradient></defs><g id="Layer_2" data-name="Layer 2"><g id="Layer_1-2" data-name="Layer 1"><circle class="cls-1" cx="409.48" cy="408.84" r="408.84"/><path class="cls-2" d="M408.84,0C183,0,0,183,0,408.84S183,817.68,408.84,817.68s408.84-183,408.84-408.84S634.64,0,408.84,0ZM279.34,177.47c-13-20.92-20.74-45.53-28.42-70,35.52,17.81,58.76,52.81,63.64,95.31-11.08-11.28-19.07-28.7-30.15-40,10.47,17.81,19.63,40.42,33.49,55.34A137.88,137.88,0,0,1,279.34,177.47Zm44.2-115.13h14.78L341.4,194l6.78-131.67h22.17c-4.31,179.21,0,321.85,0,321.85H323.54C326.62,369.56,323.54,62.34,323.54,62.34ZM373,730.72l-2.89-2.47c.12,4.8.2,7.33.2,7.33H323.54c3.08-14.63,0-321.85,0-321.85h14.79l3.07,131.66,6.78-131.66h22.17c-1.8,74.73-2.1,143.1-1.84,197.42,32.8-81.71,75.94-192.57,75.94-192.57l12.75,10.87L414.13,545.33,465.71,436.7,484.84,453C418.87,604.47,373,730.72,373,730.72Zm59.56-3.49c15.81.14,33.78,6.81,49.59,6.95-20-5.19-42.46-14.7-62.81-15.45a138,138,0,0,1,56,1.51c24,5.62,46.86,17.53,69.57,29.38C507.29,762.15,466.11,753.83,432.6,727.23Zm48.71-78.37c-21.25,24.66-45.26,44.92-70.94,59.88,25.64-22,49.1-57.42,71.81-84.73-20.16,16.53-39.46,43.65-59.62,60.17C450.61,615.47,498.71,562.24,554,539.3,531.53,578,508.87,616.88,481.31,648.86Zm6.46-204-40.71-33.59c6.27-7,79-202.67,79-202.67l12.86,10.61-29.64,85.12,38.21-78.05,19.28,15.91C519,351.93,487.77,444.84,487.77,444.84Z"/></g><g id="Layer_4" data-name="Layer 4"><path class="cls-3" d="M68.3,942.52l5.54-13.31q16.18,0,26.84,4.77t16.07,13a33.36,33.36,0,0,1,5.43,18.85q0,20.4-15,30.38t-42.69,10c-3.85,0-7.87-.11-12.09-.33A117.15,117.15,0,0,1,40,1004.5,110.1,110.1,0,0,1,28.38,1002q-10-3.11-10-11.54V879.32a8.29,8.29,0,0,1,2.1-6.1A13.71,13.71,0,0,1,26.39,870a90.4,90.4,0,0,1,16.74-3.1q9.19-.89,19.4-.89,25.73,0,40,9.09T116.86,903a31.65,31.65,0,0,1-5,17.52q-5,7.77-15.63,12.2t-27.72,4.43L66.75,925q13.52,0,20.29-5.43t6.76-15.42q0-10-7.87-15t-23.4-5a117.16,117.16,0,0,0-11.86.55q-5.43.56-9.65,1.22v99.57a77.43,77.43,0,0,0,11.2,1.66q6.54.56,13,.55,16.17,0,24.83-5.54t8.65-17.3q0-10.41-7.65-16.41T68.3,942.52ZM90.92,925v17.52H33.71V925Z"/><path class="cls-3" d="M188.26,1006.6q-21.51,0-33.59-8.31t-12.09-24.51q0-14.62,9.65-22.39t26.94-9.54l31.05-3.1v-5.1q0-10-6.43-14.53t-17.52-4.54A60.63,60.63,0,0,0,169.08,917a82.07,82.07,0,0,0-14.74,5.76,18.64,18.64,0,0,1-3.55-4.32,9.87,9.87,0,0,1-1.55-5.21q0-7.1,7.54-10.43a57.16,57.16,0,0,1,14.08-4.43,89,89,0,0,1,16.74-1.55q20.4,0,32.49,8.87t12.08,28.16v51.89q0,5.1-2.22,7.87a24.74,24.74,0,0,1-6,5.21,66.42,66.42,0,0,1-15,5.43A84.37,84.37,0,0,1,188.26,1006.6Zm0-17.52A49.91,49.91,0,0,0,202,987.42a34.32,34.32,0,0,0,8.21-3.21V955.38l-24.84,2.44q-10.2.88-15.41,4.65t-5.21,10.87a13.44,13.44,0,0,0,5.87,11.53Q176.51,989.08,188.26,989.08Z"/><path class="cls-3" d="M349.48,931.87v25.28h-22.4V934.09q0-10-5.77-14.52T306.23,915a35.13,35.13,0,0,0-11.86,2,45.14,45.14,0,0,0-9.42,4.43v35.7h-22.4V921a15.15,15.15,0,0,1,2-8.1,22,22,0,0,1,6.65-6.32,62.3,62.3,0,0,1,16-6.87,69.45,69.45,0,0,1,19.74-2.88,56.5,56.5,0,0,1,20,3.32,30,30,0,0,1,13.75,9.76,31.6,31.6,0,0,1,2.66,2.55,13.07,13.07,0,0,1,2,3,29.38,29.38,0,0,1,3,7.1A33.52,33.52,0,0,1,349.48,931.87Zm-86.93,14.19H285v57c-1,.3-2.48.67-4.33,1.11a24.79,24.79,0,0,1-5.87.67q-6.21,0-9.21-2.33t-3-8.09Zm64.53,0h22.4v57c-.89.3-2.3.67-4.22,1.11a26.16,26.16,0,0,1-6,.67c-4.15,0-7.21-.78-9.21-2.33s-3-4.25-3-8.09ZM414,933v24.17h-22.4V934.09q0-10-5.54-14.52T371.21,915a33.26,33.26,0,0,0-13.31,2.77,36.79,36.79,0,0,0-11.53,7.87l-10.2-14.85a60.57,60.57,0,0,1,15.52-9.76q9.31-4.21,22-4.21a53.91,53.91,0,0,1,20.84,3.77,30.39,30.39,0,0,1,14.3,11.86Q414,920.57,414,933Zm-22.4,13.08H414v57c-.89.3-2.3.67-4.22,1.11a26.19,26.19,0,0,1-6,.67c-4.14,0-7.2-.78-9.2-2.33s-3-4.25-3-8.09Z"/><path class="cls-3" d="M467.89,915.24h-22.4V859.58a37.51,37.51,0,0,1,4.22-1,33.68,33.68,0,0,1,6.21-.55q6,0,9,2.22t3,8Zm26.17-18.4a52.57,52.57,0,0,1,25.17,6,42.45,42.45,0,0,1,17.62,18.08q6.43,12.08,6.44,30.71,0,18.4-6.77,30.71a43,43,0,0,1-18.74,18.3q-12,6-27.94,6a69,69,0,0,1-20.84-2.88,72.86,72.86,0,0,1-15.08-6.43,21.26,21.26,0,0,1-6.54-6.21,15.16,15.16,0,0,1-1.89-8V910.36h22.4v71.85a35.83,35.83,0,0,0,8.76,4.21,38.87,38.87,0,0,0,13,2q14,0,22.4-9t8.43-27.83q0-19.07-8.43-27.83T490.29,915a32.86,32.86,0,0,0-14.86,3.21,43.87,43.87,0,0,0-10.64,7.21l-2.66-18.18a77,77,0,0,1,13-7Q483,896.84,494.06,896.84Z"/><path class="cls-3" d="M667.91,951.61q0,16.85-6.43,29.16a46.21,46.21,0,0,1-18.19,19.07q-11.74,6.76-27.49,6.76t-27.61-6.76a46,46,0,0,1-18.3-19.07q-6.43-12.32-6.43-29.16T570,922.56a47,47,0,0,1,18.29-19q11.75-6.76,27.5-6.76,15.51,0,27.27,6.76a47.13,47.13,0,0,1,18.3,19Q667.9,934.76,667.91,951.61ZM615.8,915q-13.53,0-21.51,9.76t-8,26.83q0,17.52,7.76,27.16t21.74,9.65q13.74,0,21.4-9.76t7.65-27q0-17.07-7.76-26.83T615.8,915Z"/><path class="cls-3" d="M792.31,951.61q0,16.85-6.43,29.16a46.21,46.21,0,0,1-18.19,19.07q-11.75,6.76-27.49,6.76t-27.61-6.76a46,46,0,0,1-18.3-19.07q-6.43-12.32-6.43-29.16t6.54-29.05a47.07,47.07,0,0,1,18.3-19q11.74-6.76,27.5-6.76,15.51,0,27.27,6.76a47.13,47.13,0,0,1,18.3,19Q792.3,934.76,792.31,951.61ZM740.2,915q-13.53,0-21.51,9.76t-8,26.83q0,17.52,7.76,27.16t21.74,9.65q13.74,0,21.39-9.76t7.66-27q0-17.07-7.77-26.83T740.2,915Z"/></g></g></svg>