<svg xmlns="http://www.w3.org/2000/svg" xmlns:xlink="http://www.w3.org/1999/xlink" viewBox="0 0 818.32 817.68"><defs><style>.cls-1{fill:url(#radial-gradient);}.cls-2{fill:#8dc63f;}</style><radialGradient id="radial-gradient" cx="409.48" cy="408.84" r="408.84" gradientUnits="userSpaceOnUse"><stop offset="0" stop-color="#6ca442"/><stop offset="0.18" stop-color="#407e3d"/><stop offset="0.35" stop-color="#1d5f39"/><stop offset="0.49" stop-color="#084d37"/><stop offset="0.58" stop-color="#004636"/></radialGradient></defs><g id="Layer_2" data-name="Layer 2"><g id="Layer_1-2" data-name="Layer 1"><circle class="cls-1" cx="409.48" cy="408.84" r="408.84"/><path class="cls-2" d="M408.84,0C183,0,0,183,0,408.84S183,817.68,408.84,817.68s408.84-183,408.84-408.84S634.64,0,408.84,0ZM279.34,177.47c-13-20.92-20.74-45.53-28.42-70,35.52,17.81,58.76,52.81,63.64,95.31-11.08-11.28-19.07-28.7-30.15-40,10.47,17.81,19.63,40.42,33.49,55.34A137.88,137.88,0,0,1,279.34,177.47Zm44.2-115.13h14.78L341.4,194l6.78-131.67h22.17c-4.31,179.21,0,321.85,0,321.85H323.54C326.62,369.56,323.54,62.34,323.54,62.34ZM373,730.72l-2.89-2.47c.12,4.8.2,7.33.2,7.33H323.54c3.08-14.63,0-321.85,0-321.85h14.79l3.07,131.66,6.78-131.66h22.17c-1.8,74.73-2.1,143.1-1.84,197.42,32.8-81.71,75.94-192.57,75.94-192.57l12.75,10.87L414.13,545.33,465.71,436.7,484.84,453C418.87,604.47,373,730.72,373,730.72Zm59.56-3.49c15.81.14,33.78,6.81,49.59,6.95-20-5.19-42.46-14.7-62.81-15.45a138,138,0,0,1,56,1.51c24,5.62,46.86,17.53,69.57,29.38C507.29,762.15,466.11,753.83,432.6,727.23Zm48.71-78.37c-21.25,24.66-45.26,44.92-70.94,59.88,25.64-22,49.1-57.42,71.81-84.73-20.16,16.53-39.46,43.65-59.62,60.17C450.61,615.47,498.71,562.24,554,539.3,531.53,578,508.87,616.88,481.31,648.86Zm6.46-204-40.71-33.59c6.27-7,79-202.67,79-202.67l12.86,10.61-29.64,85.12,38.21-78.05,19.28,15.91C519,351.93,487.77,444.84,487.77,444.84Z"/></g></g></svg>